<svg width="353" height="199" viewBox="0 0 353 199" fill="none" xmlns="http://www.w3.org/2000/svg">
<rect width="353" height="198.562" fill="white"/>
<ellipse cx="181.674" cy="168.373" rx="141.674" ry="11.6267" fill="#EBEBED"/>
<path d="M155.981 161.02C165.352 161.02 172.949 150.701 172.949 137.971C172.949 125.241 165.352 114.922 155.981 114.922C146.61 114.922 139.013 125.241 139.013 137.971C139.013 150.701 146.61 161.02 155.981 161.02Z" fill="#333846"/>
<path d="M172.423 137.971C172.423 148.258 168.477 156.462 163.741 156.462C158.875 156.462 155.06 148.128 155.06 137.971C155.06 127.683 159.006 119.479 163.741 119.479C168.477 119.479 172.423 127.683 172.423 137.971Z" fill="#EBF5FF"/>
<path d="M294.485 130.548C294.485 149.561 288.566 164.927 281.2 164.927C273.835 164.927 267.916 149.561 267.916 130.548C267.916 111.536 273.835 96.1698 281.2 96.1698C288.566 96.0395 294.485 111.536 294.485 130.548Z" fill="#333846"/>
<path d="M291.986 131.199C291.986 143.961 289.618 154.249 286.725 154.249C283.831 154.249 281.463 143.961 281.463 131.199C281.463 118.438 283.831 108.15 286.725 108.15C289.618 108.15 291.986 118.568 291.986 131.199Z" fill="#EBF5FF"/>
<path d="M291.592 131.981C291.592 140.575 290.013 147.477 288.04 147.477C286.067 147.477 284.489 140.575 284.489 131.981C284.489 123.386 286.067 116.484 288.04 116.484C290.013 116.615 291.592 123.516 291.592 131.981Z" fill="#3D4039"/>
<path d="M290.276 133.023C290.276 137.71 289.355 141.487 288.303 141.487C287.251 141.487 286.33 137.71 286.33 133.023C286.33 128.335 287.251 124.558 288.303 124.558C289.487 124.688 290.276 128.465 290.276 133.023Z" fill="#3D4039"/>
<path d="M291.591 129.507C291.591 135.106 289.882 139.664 287.909 139.664C285.936 139.664 284.226 135.106 284.226 129.507C284.226 123.907 285.936 119.349 287.909 119.349C289.882 119.349 291.591 123.907 291.591 129.507Z" fill="#3D4039"/>
<path d="M78.6396 170.526C92.006 170.526 102.842 155.834 102.842 137.71C102.842 119.587 92.006 104.895 78.6396 104.895C65.2731 104.895 54.4375 119.587 54.4375 137.71C54.4375 155.834 65.2731 170.526 78.6396 170.526Z" fill="#333846"/>
<path d="M98.8958 139.013C98.8958 154.379 92.4506 166.75 84.4271 166.75C76.4036 166.75 69.9585 154.249 69.9585 139.013C69.9585 123.647 76.4036 111.275 84.4271 111.275C92.4506 111.275 98.8958 123.777 98.8958 139.013Z" fill="#EBF5FF"/>
<path d="M95.4759 140.706C95.4759 151.123 91.6614 159.588 87.0578 159.588C82.4541 159.588 78.6396 151.123 78.6396 140.706C78.6396 130.288 82.4541 121.823 87.0578 121.823C91.6614 121.954 95.4759 130.288 95.4759 140.706Z" fill="#333846"/>
<path d="M235.427 170.136C247.559 170.136 257.393 155.444 257.393 137.32C257.393 119.196 247.559 104.504 235.427 104.504C223.295 104.504 213.461 119.196 213.461 137.32C213.461 155.444 223.295 170.136 235.427 170.136Z" fill="#333846"/>
<path d="M254.105 137.059C254.105 149.951 249.37 160.369 243.451 160.369C237.532 160.369 232.796 149.951 232.796 137.059C232.796 124.167 237.532 113.75 243.451 113.75C249.37 113.75 254.105 124.167 254.105 137.059Z" fill="#EBF5FF"/>
<path d="M252.789 137.059C252.789 147.347 248.975 155.681 244.24 155.681C239.504 155.681 235.69 147.347 235.69 137.059C235.69 126.772 239.504 118.438 244.24 118.438C248.975 118.438 252.789 126.772 252.789 137.059Z" fill="#3D4039"/>
<path d="M249.501 138.622L253.579 139.794L253.447 133.543L250.159 133.023L252.921 129.376L251.737 123.647L248.844 127.814C248.186 125.991 247.397 124.558 246.476 123.647L245.95 115.182L240.82 115.312L242.398 123.907C241.346 124.949 240.557 126.511 240.031 128.595L235.427 123.777L234.243 130.288L239.373 134.585C239.373 134.585 239.373 134.585 239.373 134.715C239.373 135.106 239.373 135.497 239.373 135.757L234.112 135.367V140.706L240.031 140.315C240.031 140.445 240.031 140.575 240.162 140.706L234.506 145.524L236.479 150.602L241.741 144.482C242.004 144.873 242.267 145.133 242.53 145.394L240.952 156.593L247.134 156.853L247.002 145.524C247.397 145.133 247.66 144.742 248.054 144.222L252.132 149.04L253.579 142.659L249.633 139.794C249.37 139.273 249.501 138.882 249.501 138.622Z" fill="#EBF5FF"/>
<path d="M290.013 136.538L291.723 137.71L291.855 130.418L290.276 131.72L291.723 125.47L291.065 118.568L289.619 123.647C289.355 121.433 288.566 110.103 288.566 110.103L285.936 110.234C285.936 110.234 285.541 122.084 285.278 124.558L283.042 118.698L282.384 126.511C282.384 126.511 285.673 133.153 285.673 133.674L282.253 132.632V139.143L285.146 138.622C285.804 137.841 282.779 144.873 282.779 144.873L284.357 150.342L287.119 140.575C287.251 140.966 286.067 152.165 286.067 152.165L288.698 151.514L288.961 140.966C289.092 140.575 290.013 147.477 290.013 147.477L291.197 140.836C291.197 140.966 290.013 136.929 290.013 136.538Z" fill="#EBF5FF"/>
<path d="M294.354 134.195C294.354 134.195 296.195 100.207 291.329 103.723C291.329 103.723 285.41 109.192 285.673 124.688C285.673 124.688 286.067 143.18 278.175 144.742L256.341 146.956C256.341 146.956 260.155 133.153 252.921 117.526C252.921 117.526 252.395 90.44 244.371 101.379C243.845 102.03 243.845 102.42 242.924 104.504C240.557 110.364 235.822 124.037 236.479 140.706V140.836C236.348 141.226 236.085 142.138 235.69 143.31C235.032 145.133 233.849 147.607 232.27 149.17C232.27 149.17 220.827 149.561 203.596 149.951C164.136 150.993 94.6867 152.165 64.9602 148.91C62.0665 148.649 59.6989 148.258 57.5944 147.868C57.5944 147.868 55.0952 143.961 54.043 139.794C53.6484 138.362 53.5168 136.929 53.5168 135.627C53.5168 135.627 53.6484 105.806 61.2773 93.6955C61.2773 93.6955 60.6196 75.9854 77.1928 71.037C77.1928 71.037 80.8757 67.521 86.4001 62.4423C100.343 50.0713 124.676 28.3242 130.858 27.022C130.858 27.022 179.526 12.9581 236.611 22.0736C236.611 22.0736 254.236 20.5109 268.705 39.1326C268.705 39.1326 271.73 43.1695 274.755 49.0295C276.992 53.457 279.096 58.7961 279.754 64.3956C279.754 64.3956 279.754 64.3956 279.885 64.5259C280.806 65.4374 286.988 72.209 288.172 74.8134C289.487 77.8085 292.644 92.784 294.091 99.1649C293.828 99.1649 301.851 124.298 294.354 134.195Z" fill="#007FFF"/>
<path d="M279.491 64.3956C277.781 65.177 261.734 72.3392 246.344 74.2925C246.344 74.2925 246.344 74.2925 246.213 74.2925C245.818 74.5529 232.928 75.7249 225.299 70.5161C225.167 70.3858 225.167 70.2556 225.299 70.1254C226.746 69.2139 233.454 64.9165 232.796 61.1401C232.796 61.0099 232.665 61.0099 232.533 61.0099L87.3207 62.4423C87.0576 62.4423 87.0576 62.1819 87.1892 62.0517C100.737 49.5504 124.676 28.3242 130.858 27.022C130.858 27.022 179.525 12.9581 236.479 22.0736C236.479 22.0736 254.368 20.5109 268.573 39.1326C268.573 39.1326 277.912 51.113 279.622 64.2654L279.491 64.3956Z" fill="#0069D2"/>
<path d="M86.4001 62.4423L82.3226 66.0885L79.6919 65.177L80.3496 61.661C85.6109 53.0663 93.3713 55.9312 93.3713 55.9312L86.4001 62.4423Z" fill="#333846"/>
<path d="M257.656 29.8869C257.656 29.8869 240.294 17.1251 240.557 31.1891C240.557 31.1891 243.582 67.9116 249.633 73.7716C249.633 73.7716 275.413 68.8232 279.228 64.6561C280.675 63.2236 268.837 36.1375 257.656 29.8869Z" fill="#333846"/>
<path d="M243.845 41.6068C243.845 41.6068 241.872 30.0171 246.344 28.8451C246.344 28.8451 249.896 28.194 250.422 28.9753C255.289 35.7468 261.471 46.9459 264.89 61.2703C264.89 61.2703 255.42 67.1303 251.343 64.005C247.133 60.8796 243.845 41.6068 243.845 41.6068Z" fill="#EAF4FF"/>
<path d="M255.42 31.4495C255.42 31.4495 270.283 39.5233 274.229 57.7543C274.229 57.7543 266.995 60.489 266.206 59.8379C265.416 59.1868 260.024 40.3046 254.894 33.0122C254.894 33.1424 253.579 31.1891 255.42 31.4495Z" fill="#EAF4FF"/>
<path d="M131.779 28.9753C136.12 28.0638 198.598 16.3438 234.638 28.9753C235.69 29.366 236.479 30.4078 236.479 31.5797C236.611 38.7419 236.742 63.4841 230.823 61.1401C230.823 61.1401 126.649 60.6192 97.8435 61.661C95.3444 61.7912 94.0291 58.6659 95.739 56.973C104.026 48.769 120.467 33.2726 131.253 29.2358C131.516 29.1055 131.648 29.1055 131.779 28.9753Z" fill="#333846"/>
<path d="M106.788 57.3637C104.552 57.3637 103.499 54.7592 105.078 53.1966C114.022 44.9926 125.202 35.6166 132.7 32.882C135.725 32.2309 163.347 27.1522 191.626 27.1522C207.542 27.1522 220.827 28.7149 231.086 31.8402C232.139 32.1006 232.796 33.0122 232.796 34.054C232.928 42.7788 232.27 51.113 231.349 55.2801C231.086 56.3219 230.166 57.1032 228.982 57.1032C222.011 57.1032 198.992 56.973 173.869 56.973C139.013 56.973 118.757 57.2334 106.788 57.3637Z" fill="#EBF5FF"/>
<path d="M246.476 66.3489L247.923 70.2556C247.923 70.2556 270.678 72.86 276.597 65.6978C276.597 65.6978 278.175 49.4201 253.579 54.8894C250.948 55.5405 253.447 65.8281 253.447 65.8281C253.447 65.8281 248.975 67.1303 246.476 66.3489Z" fill="#333846"/>
<path d="M290.013 105.285C290.013 105.285 292.381 97.6022 294.222 108.671C296.064 119.74 294.617 131.199 293.959 131.199C293.433 131.33 294.354 119.089 290.013 105.285Z" fill="#111111"/>
<path d="M241.872 106.197C241.872 106.197 247.396 107.629 253.052 117.396C253.052 117.396 253.973 98.3835 248.449 98.3835C248.449 98.3835 244.108 98.1231 241.872 106.197Z" fill="#333846"/>
<path d="M294.222 134.325C294.222 134.325 295.932 101.9 291.329 103.723C291.329 103.723 288.961 105.415 286.462 114.01C286.462 114.01 285.278 105.546 290.013 101.118C291.592 99.6857 294.091 100.467 294.617 102.551C296.59 109.843 300.01 126.642 294.222 134.325Z" fill="#0069D2"/>
<path d="M203.859 149.951C164.399 150.993 94.9496 152.165 65.2232 148.91L64.9601 148.258C64.9601 148.258 64.1709 146.045 65.3547 143.831C66.407 141.617 67.3277 138.622 68.1169 138.101L68.2484 137.971C69.0376 137.841 70.7475 109.452 84.69 106.327C84.69 106.327 112.049 95.5187 115.732 97.2115C119.415 98.9044 153.482 97.472 153.482 97.472C153.482 97.472 185.707 101.9 193.205 114.531C193.205 114.531 201.491 130.288 202.018 138.622L203.859 149.951Z" fill="#333846"/>
<path d="M223.063 108.15C223.063 108.15 232.533 132.632 223.063 138.362C223.063 138.362 207.937 144.873 207.147 127.163C206.884 121.042 214.513 116.745 223.063 108.15Z" fill="#333846"/>
<path d="M58.1203 113.489C57.4626 119.349 55.8842 133.023 56.5419 136.018C56.5419 136.278 56.8049 136.538 57.068 136.799C58.3833 137.71 63.5131 140.706 66.8015 135.887C70.2213 130.809 66.1438 119.87 60.4879 112.968C59.5671 111.927 58.1203 112.447 58.1203 113.489Z" fill="#333846"/>
<path d="M285.673 124.688C285.673 124.688 286.067 143.18 278.175 144.742L256.341 146.956L257.393 138.622L278.57 136.148C278.57 136.148 281.727 135.757 285.541 121.172C285.804 120.391 285.936 119.74 286.199 119.349C285.936 121.042 285.673 122.995 285.673 124.688Z" fill="#0069D2"/>
<path d="M203.859 149.951C164.399 150.993 94.9496 152.165 65.2232 148.91L64.9601 148.258C64.9601 148.258 64.1709 146.045 65.3547 143.831C66.407 141.617 67.3277 138.622 68.1169 138.101L68.2484 137.971L85.8738 143.05C85.8738 143.05 174.659 145.003 177.026 144.352C179.394 143.701 202.149 138.622 202.149 138.622L203.201 144.742L203.859 149.951Z" fill="#0069D2"/>
<path d="M156.507 125.991H107.314C102.973 125.991 99.4216 122.475 99.4216 118.177C99.4216 113.88 102.973 110.364 107.314 110.364H156.639C160.979 110.364 164.53 113.88 164.53 118.177C164.53 122.475 160.979 125.991 156.507 125.991Z" fill="#EBF5FF"/>
<path d="M61.5404 93.5653C61.5404 93.5653 58.6467 106.067 78.5082 109.062C78.5082 109.062 107.182 97.4719 112.707 97.4719C112.838 97.4719 74.1676 89.268 61.5404 93.5653Z" fill="#0069D2"/>
<path d="M180.841 104.764C180.841 104.764 210.699 103.071 224.115 95.5186C224.115 95.5186 193.468 81.7151 153.35 97.472L180.841 104.764Z" fill="#0069D2"/>
<path d="M87.8469 83.7987C87.8469 83.7987 119.283 85.1009 121.782 84.3196C121.782 84.3196 132.7 74.0321 147.958 84.1894C147.958 84.1894 189.917 83.7987 193.6 83.1476C193.6 83.1476 184.524 90.7005 183.208 95.5187C183.208 95.5187 158.612 94.7373 153.613 97.3418C148.484 99.9462 131.91 117.266 115.074 97.7324C115.074 97.7324 95.0812 93.5653 91.2668 94.0862C91.1353 94.2164 89.9515 90.44 87.8469 83.7987Z" fill="#333846"/>
<path d="M89.8199 90.44L116.653 94.0862C116.653 94.0862 131.516 117.005 152.035 94.3467L185.839 90.9609L188.075 88.4867C188.075 88.4867 150.588 91.612 148.747 92.6538C148.747 92.6538 133.489 112.838 120.862 92.784L88.8992 87.0542L89.8199 90.44Z" fill="#EBF5FF"/>
<path d="M143.091 94.6071C143.091 98.1231 139.013 101.118 134.015 101.118C129.017 101.118 124.939 98.2533 124.939 94.6071C124.939 91.0911 129.017 88.096 134.015 88.096C139.013 88.096 143.091 90.9609 143.091 94.6071Z" fill="#EBF5FF"/>
<path d="M91.1361 97.321C91.1361 97.321 70.2728 92.8272 65.9697 94.942C65.9697 94.942 62.0132 94.9334 61.1004 93.8761C61.1004 93.8761 60.6698 83.9718 67.1433 77.2311C69.4904 74.4555 72.7503 72.0765 77.3142 70.6226C77.3142 70.6226 80.7044 76.8346 84.0947 80.5354C85.5291 82.1214 86.9635 83.1788 88.0066 83.1788C88.0066 83.0466 93.3529 95.735 91.1361 97.321Z" fill="#EBF5FF"/>
<path d="M232.928 78.8502C232.928 78.8502 229.639 99.8159 218.065 94.8675C218.065 94.8675 193.205 95.2582 182.288 96.5604C182.288 96.5604 185.313 86.5333 197.545 80.4129C200.439 78.9805 203.859 77.6783 207.805 76.8969C207.805 76.8969 223.984 72.2089 225.167 70.3858C225.167 70.3858 231.744 71.6881 232.928 76.2458C233.059 77.0271 233.059 77.8085 232.928 78.8502Z" fill="#EBF5FF"/>
</svg>
