<svg width="36" height="36" viewBox="0 0 36 36" fill="none" xmlns="http://www.w3.org/2000/svg">
<path d="M8.47808 12.6914L15.4783 17.8495L19.7593 13.5685L11.0471 9.78056C10.3628 9.48305 9.56623 9.6343 9.03863 10.1619L8.34015 10.8604C7.81619 11.3843 7.88153 12.2518 8.47808 12.6914Z" fill="#0055AC"/>
<path d="M23.4189 27.6324L18.2609 20.6322L22.5418 16.3512L26.3298 25.0634C26.6273 25.7477 26.476 26.5443 25.9484 27.0719L25.2499 27.7704C24.726 28.2943 23.8585 28.229 23.4189 27.6324Z" fill="#0055AC"/>
<path d="M5.36356 25.3791L8.67155 26.7968L11.497 22.4302L5.96885 22.4302C5.56132 22.4302 5.17049 22.5921 4.88233 22.8802C4.11366 23.6489 4.36439 24.9509 5.36356 25.3791Z" fill="#0055AC"/>
<path d="M10.5173 30.5328L9.09961 27.2249L13.4662 24.3994V29.9276C13.4662 30.3351 13.3043 30.7259 13.0162 31.0141C12.2475 31.7828 10.9455 31.532 10.5173 30.5328Z" fill="#0055AC"/>
<path d="M11.4961 22.2598L18.9454 13.098L26.2165 5.82697C26.6152 5.4282 27.0998 5.11882 27.6538 5.01332C28.5004 4.85207 29.7826 4.7556 30.4617 5.43465C31.1407 6.1137 31.0443 7.39593 30.883 8.24257C30.7775 8.79654 30.4681 9.28109 30.0694 9.67985L22.7983 16.9509L13.6365 24.4003L9.33194 27.7648C8.99151 28.0309 8.50609 28.0013 8.20056 27.6958C7.89504 27.3902 7.8654 26.9048 8.13148 26.5644L11.4961 22.2598Z" fill="#007FFF"/>
<path d="M28.4615 9.57541C28.3286 9.70827 28.1633 9.8087 28.0218 9.75569C27.8035 9.71453 27.6856 9.50809 27.7654 9.23365C27.7654 9.23365 27.9694 8.64048 27.6127 8.28373C27.2235 7.89455 26.707 8.08668 26.6628 8.13097C26.4208 8.24325 26.1819 8.09295 26.1407 7.87465C26.0996 7.65635 26.2886 7.40249 26.5306 7.29021C26.5749 7.24592 27.6078 6.86166 28.3213 7.57516C29.0023 8.25622 28.6181 9.28912 28.6062 9.36583C28.5943 9.44255 28.5058 9.53112 28.4615 9.57541Z" fill="#FFC247"/>
<path fill-rule="evenodd" clip-rule="evenodd" d="M6.91632 28.9801C6.56167 28.6254 6.56167 28.0504 6.91632 27.6958L10.3411 24.271C10.6958 23.9163 11.2708 23.9163 11.6254 24.271C11.98 24.6256 11.98 25.2006 11.6254 25.5553L8.20061 28.9801C7.84596 29.3347 7.27096 29.3347 6.91632 28.9801Z" fill="#FFC247"/>
</svg>
